<?xml version="1.0" standalone="no"?><!DOCTYPE svg PUBLIC "-//W3C//DTD SVG 1.1//EN" "http://www.w3.org/Graphics/SVG/1.1/DTD/svg11.dtd"><svg t="1692358152991" class="icon" viewBox="0 0 1024 1024" version="1.1" xmlns="http://www.w3.org/2000/svg" p-id="7293" xmlns:xlink="http://www.w3.org/1999/xlink" width="200" height="200"><path d="M492.58192592 376.07348148m-291.2711111 0a291.27111111 291.27111111 0 1 0 582.54222221 0 291.27111111 291.27111111 0 1 0-582.54222221 0Z" fill="#FFFFFF" p-id="7294"></path><path d="M210.55381808 615.69251555A368.74922667 368.74922667 0 0 1 123.63851852 377.35507437a370.2250003 370.2250003 0 0 1 740.48883673 0c0 89.09012385-31.45728 170.8402157-83.88608 234.72567941h0.1553446L494.174208 1016.86992592 210.55381808 615.69251555z m283.30970074-53.20552296a185.13191822 185.13191822 0 1 0 0-370.22500029 185.13191822 185.13191822 0 0 0 0 370.22500029z" fill="#55d9df" p-id="7295" data-spm-anchor-id="a313x.manage_type_myprojects.0.i28.5c793a81htKYIG" class="selected"></path></svg>